<?xml version="1.0" encoding="UTF-8"?>
<svg id="Capa_1" xmlns="http://www.w3.org/2000/svg" version="1.1" viewBox="0 0 1784 2048">
  <!-- Generator: Adobe Illustrator 29.3.0, SVG Export Plug-In . SVG Version: 2.1.0 Build 146)  -->
  <path d="M1264.1,260.3c.9-8.5,5.6-24.2,16.7-23.5,13.2.8,24.2,35.8,27.6,47,6.9,1.2,1.9-6.1,2.1-9.6.6-10.1,3.1-23.4,16.3-21.7,11.4,1.5,11.1,15.8,17.9,22.6.2-7.9,5.6-20.9,15.6-15.5,9.9,5.4,11,29.3,14.1,40.2,17,60.1,37,119.1,52.8,179.5,14.8,56.5,24.7,85.9,24.4,146.6-.2,42.5,1,60.8-25.7,96.4-53.1,70.6-159.8,71.9-224.5,15.9-8.1-7-21.2-20.4-28.1-28-3.4-3.7-11.3-18-14.6-18.8l-37.7,6.7c-.7,8.8,4,17.1,5.1,25.4,6,44.4-2.7,89.4-3.4,133.8-.2,13.1,3.5,23.6,3.7,34.9.3,13.3-5,19,3.7,32.8,5.4,8.7,39.6,28.6,50.1,32.5,18.3,6.9,39.5,6.2,57.6,11.2,6.8,1.9,12.2,6.3,18.7,7.7,42.1,9.6,78.9-5.4,120.9,20.3,31.5,19.3,29,37.9,24.9,72.1,19.2-.3,38.9,11.9,56,20.6,85.1,43.3,147.7,74,201.1,157.1,174.1,271-62,629.5-385.6,555.4-253.7-58.1-360.3-362.8-210.8-570,19.8-27.4,44.8-48.8,65.9-74.4,4.4-5.3,13.1-8.1,13.1-18.2,0-4-5.2-15.3-8.7-17.3s-9-1.5-12.7-3.1c-16.6-7.4-28.3-14.4-45.6-21.3-47.7-18.9-70-64.7-78-112.1-6.4-1.8-12.5,1.1-18.4,1.6-33.4,2.5-68,4.5-102.5,3.5-9.1-.3-19.3-3.4-29.1-1.8-2.1,1.8,21,43.7,23.3,49.3,5.4,13.2,7.3,27.6,12,40.4,5.2,14.2,15.3,27.8,20.3,42.7,12.1,35.6,13.4,80.3,11.4,117.4-2.6,48.7-4.9,102-12.7,151-3.6,22.2-19.6,78.2-50,74.6-3.9-.5-6-3-8.9-3.5-21.2-3.5-25.3,4.9-45-11.4-51.7-42.6-36.4-155.4-38.8-216-2.6-65.4-23.2-141.8-59.8-197-13.6-20.6-37.7-37.6-54.3-56.2-2.1,2.9-11.2,8.7-14.1,8.7h-61l52.2,43.5c164.2,167.1,134.3,477.6-75.8,594-209.9,116.3-434.1-35-474.6-250.6-37.9-201.8,91.2-433.5,315.1-440.9,41-1.3,81.6,15.1,118.5,12.2,6-.5,11.3-3.2,17.6-3.5,26-1.4,52.7-.6,78.7-1.7,1.1-4.1-1.1-2.9-2.3-4-56-48.7-93.9-89.9-108.6-164.6-18.5-94.2-7.5-152.2,91.8-183.6,76.1-24,136.2-25.1,214.4-30.9,22.6-1.7,48.4-7.7,70.8-8.3,13.3-.4,30.7,2.8,44.1,3.2,51.5,1.6,92.9-2.6,136.9,28.8,11,7.8,17.8,17,27.6,25.1s6,1.7,7.1,3.4c1.4,2.1.4,6.1,1.7,8.7,3.7,7.5,28.4,6.3,35,1.8.6-.4,9.5-11,9.8-11.7,2.8-9.6,1.6-24.1,4.7-35.4,1.8-6.6,5.9-12.4,7.8-18.9-1.3-.5-3.4-.9-4.2-2-13.9-19.1-36.8-35.8-53.2-53.9-6.3-7-31.7-37.5-32.7-44.6-4.5-31.9,50.7,8.5,53,6.2-4.5-10.3-12.4-19-17.2-29.2-9.1-19.7-15.7-51.7,17.2-40.4,2.4-2.3-27.4-44.8-19.9-60.5s35.7,17.2,42.9,22.2c-2.4-10.5-19.4-43.5-5.2-49.6,13.2-5.7,33.1,26.2,44.1,32.2-1.8-20.4-6.7-46.7-3.4-66.9,1.5-9.1,10.4-14.7,19.4-12.4,16.2,4.2,30.3,47.4,37.1,61.9l7.1-42.5c2.4-10.9,12-19.8,22.9-12.2l14.2,21.7c.6-8.1-.9-17.3,0-25.2ZM1314.1,342.5l-32.3-76.1c-2.9,21.4,5.1,44.7,5.4,65.3s-7.3,23.9-17.4,14.4c-3.9-3.7-23.1-60-26.1-58.7-10.5,20.2-.1,49.6-4.8,70.1-1.6,7.1-7.9,9.5-14.2,6.1-14.6-7.8-29.4-73.4-45.5-86.7-.4,13,.3,26.1,2,38.9,1.4,11.2,10,36.5,4.9,45.3-10.9,18.6-37.5-20.4-45.7-26.8-.7,12.8,24.7,43,11.6,52.3s-33.3-19.2-41.7-26.2c1.1,14.9,30.4,49.7,23.9,62.7-7.3,14.6-35-15.6-36.2-13.9-.5,7.4,3.5,14,6.8,20.3,5.7,11.2,25.4,32.7,27.8,40.6,2.6,8.5-3.8,14.7-12.3,13.9l-40-14.7c20.2,25.1,41.7,49.8,68,68.8,13.5-26.1,20.9-49.8,45.3-68.6,17.9-13.9,83.1-38.9,106.3-45.1,13.6-3.7,46.1-.5,58.6,6.1,3.6,1.9,38.7,27.7,40.1,25.8-8.5-45.2-26.4-88.8-41.5-132.3l-15.1-.7c-2-1.4-8.2-23.8-10.1-28.5-1.1-2.6,1-4.7-4-3.8,1,10,7.8,46.6-1.2,52.4-3.9,2-8.9,2.2-12.5-.7ZM1403.8,527.6c-4-20.3-27.2-43.7-46-51.3-10.8-4.4-48.1-12.7-58.4-10.6-4.6,1-8.5,4.4-12.3,5.3-6.6,1.6-13.3-.3-23.5,3-43.1,13.9-104.8,79-102.2,125.9,1,18.1,32.2,67.9,44.6,83.2,28,34.7,91.3,59.8,134.6,44.3,41.2-14.7,67.1-64,72-105,.6-4.9,2.5-29.8,1.5-32.8s-1.5-2-2.4-2.8c-11.9,13.8-25.1-2-30-14-8.2-19.8-10.1-58.6,22.1-45.3ZM1032.1,616.7c-1.5-.9-5.5,0-8.4-1.3-21.5-9.9-47.4-22.9-71.8-21.8-83,4-164.7,4.8-247.5,14-55.2,6.2-124,6.4-162.7,50.5-45.3,51.5-9.1,150.5,29.3,197.5,27.1,33.2,56.7,66.5,88.3,95.8,17,15.7,17.7,16.7,31.9,34.8,8.8,11.2,18.4,15.5,26.8,29.3,41.3,68.1,63.9,141.7,67,221.3,1.7,43.9-8,122.7,10.4,160.4,3.6,7.3,19.2,2.4,24.4-1.6s16.9-29.1,18.1-35.3c8.3-43.6,5.9-133,0-177.3-2.1-15.7-1.9-28.5-3.6-43.5-4.4-39.2-37.5-125-60.1-158-4-5.9-11-10.8-15.5-18.3-7-11.8-8.8-21.9-18.6-33-19.8-22.3-43.9-46-64.9-67.5-22.9-23.5-53.3-51.3-72.4-76.7s-9.7-19.2-16.9-27.1l1.2-6.6,290.5,12.1,1.9-5.5c31.7,2.7,63.6-3.5,94.5-10.3.2,8.7,9.5,14.8,12.6,21.6,7.4,16.2,4,34.2,5.1,50.7,2.9,42.8,7.9,85.4,15.5,127.4.5,2.9-1.7,6.9.1,10.2,26.3,48,54.5,86.5,109,105.3,23.2,8,37.7,5.7,59.4,9.4,10.6,1.8,23.5,11.3,32.7,11.5,23.6.6,73.9-7.9,96.3-16.7s38.8-42.2,7.8-56.3c-22.2-10.1-84.6-16.4-111.2-19.3-13.6-1.5-31.6.2-44.8-2.9-6.9-1.6-53.6-32.5-58.7-38-15.2-16.7-26-48.8-26.6-71.3-2.2-78.7,17.9-148-16.8-223.7-2.2-4.8-20.4-38.6-22.4-39.8ZM1149.2,675.5l-15-41.7c-4.7,8.1-33,5.3-35.5,8.6l7.5,29.4c5.1,20.1,28.6,5.3,43,3.8ZM986.5,948.8c-7.3-37-13.8-74.5-16-112.2-.4-6.8,1.8-37.9-1.6-40.2l-306-1.6c14,13.3,27.9,27.2,42.4,40.1,23.9,21.1,49,40.9,71.7,63.5,15,14.9,29.1,30.6,42.7,46.8,20.6-.4,41-1.7,61.7-1.5,26.8.3,68.7-1.1,93.7,1.8,4.9.6,7,3.1,11.4,3.5ZM642,1300.6c0-133.9-110.3-242.5-246.3-242.5s-246.3,108.6-246.3,242.5,110.3,242.5,246.3,242.5,246.3-108.6,246.3-242.5ZM1602.3,1446.3c0-133.9-110.3-242.5-246.4-242.5s-246.4,108.6-246.4,242.5,110.3,242.5,246.4,242.5,246.4-108.6,246.4-242.5Z"/>
  <ellipse cx="1324.8" cy="564.8" rx="23.4" ry="34.8" transform="translate(-90.9 300.4) rotate(-12.5)"/>
</svg>
