<?xml version="1.0" encoding="UTF-8"?>
<svg id="Capa_1" data-name="Capa 1" xmlns="http://www.w3.org/2000/svg" viewBox="0 0 975.03 1480.66">
  <path d="M598.76,371.12c-7.09-7.46-9.6-32.71-8.47-42.8,1.7-15.19,19.57-23.15,33.44-19.61,19.23,4.91,28.01,34.85,20.14,51.31-6.48,13.55-33.98,22.81-45.11,11.1ZM623.69,333.51c-4.87,1.62-1.43,21.88.59,21.86,5.63-6.37,1.04-14.84-.59-21.86Z"/>
  <path d="M559.21,83.56l17.06-41.09c6.59-18.81,31.72-38.65,37.9-7.54,2.82,14.2,2.26,30.72,2.63,45.18,8.46-9.67,13.46-26.58,29.29-24.11,10.81,1.68,13.9,16.03,15.05,16.03,8.31-8.11,21.18-13.98,30.57-4.06,13.27,14,4.02,55.24,2.27,73.19,6.47-6.6,13.61-21.12,25.04-16.4,10.81,4.46,8.04,22.59,7.06,31.81-2.57,24.17-10.71,50.85-11.38,75.03-.17,6.33,3.09,12.73-1.31,18.24-3.96,4.96-8.43,2.4-13.67,2.48,11.11,18.22,18.89,38.71,21.75,60.03,10.4,77.48-13.13,130.63-85.46,161.88-3.59,1.55-21.47,6.83-22.15,7.79-3.17,4.51,6.81,33.66,8.14,40.42l1.23.97c60.65-8.25,83.12,47.68,96.92,95.51,9.6,33.27,9.53,59.47,34.29,86.65,7.9,8.67,11.47,12.66,24.09,11.38,19.06-1.94,73.94-18.33,87.53-31.1,3.41-3.2,6.33-8.61,9.88-12,27.11-25.81,71.63-20.38,90.79,11.77,21.01,35.27-1.7,77.02-24.66,105.04-42.81,52.26-131.28,68.77-196.83,61.15-54.29-6.31-75.02-39.26-99.83-82.16-4.2-7.26-15.04-20.83-24.4-20.03-4.29.36-14.65,6.72-16.73,10.78-2.34,4.56-1.53,23.47-1.36,29.86.31,11.55,1.11,13.38-1.45,26.07-4.4,21.83-9.83,58.4-22.2,75.71-2.1,2.94-5.99,4.03-4.64,8.19.51,1.57,9.94,14.36,11.62,16.12,7.99,8.36,20.89,9.91,31.66,14.41,32.76,13.67,86.05,40.82,105.04,71.18,19.74,31.55,38.84,63.64,36.71,102.75-.32,5.95-2.82,24-6.99,27.59-3.56,3.07-4.2,1.61-7.7,7.24-9.34,15.06-9.57,28.3-22.16,42.34-16.75,18.69-34.76,36.99-51.07,56.12-28.74,33.7-41.58,58.22-78.61,86.07-8.52,6.41-18.02,15.76-26.41,21.87-6.05,4.41-8.97,2.43-14.77,3.7s-16.48,8.61-23.29,9.07c-6.8.45-23.46-2.34-30.51-4.11-13.89-3.49-9.35-2.77-16.78-12.02-2.72-3.39-5.64-5.22-8.02-9.26-8.02-13.63-13.84-43.01-8.34-57.94,3.63-9.87,11.87-12.51,18.92-19.67,4.43-4.5,7.23-9.89,12.53-14.53,13.03-11.41,31.12-19.15,44.32-30.54,15.56-13.43,45.3-43.46,58.17-59.32,4.45-5.49,7.44-12.19,12.12-17.83,10.32-12.46,22.16-20.85,28.16-37.49,2.86-7.94.61-9.77-4.56-16.12-10.14-12.44-27.55-18.35-41.26-26.7-36.98-22.5-78.83-48.43-100.06-87.12-1.78-1.06-20.18,5.12-24.57,5.55-10.59,1.04-32.04,1.04-42.66.06-7.5-.69-15.33-4.44-21.76-8.1-11.17,11.9-21.12,23.76-28.31,38.64,8.93,18.74,8.32,38.41,8.12,58.72-.12,12.37,1.16,15.35,2.25,26.45,4.51,45.93-32.15,112.91-59.92,148.54-4.67,5.99-10.67,11.01-15.21,17.04-15.69,20.87-27.91,48.69-43.03,71-23.11,34.12-55.67,76.16-82.28,107.77-19.22,22.83-36.2,32.33-63.34,43.78-24.53,10.35-45.62,3.29-69.4-5.44-46.25-16.97-64.47-63.83-46.32-109.13,14.33-35.78,60.42-76.42,90.38-100.82,28.15-22.92,62.51-37.76,91.58-59.3,34.48-25.55,63.39-84.62,65.12-127.22.46-11.42-4-15.13-7.27-25.08-9.42-28.73-15.59-60.38,6.63-84.98l98.33-99.87c-2.45-11.46-7.06-22.1-7.94-34.25-2.51-34.84,9.47-128.25,28.37-157.16,1.87-2.86,6.93-7.39,7.9-9.38,1.18-2.41,2.73-13.45,2.95-16.65.16-2.4-.02-1.48-1.71-1.73-4.82-.7-11.02.38-16.15,0-16.74-1.25-33.78-4.15-49.54-9.89l-58.3,36.92.12,124.43c-1.16,39.68-23.96,92.99-68.67,97.19-72.72,6.83-93.97-60.89-86.67-121.22,4.22-34.88,9.6-70.05,13.66-104.97,2.61-22.46-1.93-37.45,9.01-58.94,35.69-70.12,177.31-112.92,250.74-116.68,18.19-.93,36.3,2.6,52.91,2.33,4.99-.08,11.93-2.93,17.35-3.48,19.17-1.95,38.01-1.08,56.94,2.24,1.22-5.33,3.44-10.69,5.62-15.69,1.41-3.25,6.78-10.61,5.45-13.05-.77-1.41-17.93-12.55-21.39-15.53-21.46-18.5-37.54-41.18-45.45-68.58-1.92-1.95-10.52-.93-14.48-1.64-12.91-2.32-35.16-16.69-45.94-24.32-18.96-13.42-24.83-57.04-9.88-75.38,15.94-19.56,39.42-25.77,63.76-26.66,1.72-4.09,3.55-8.24,5.74-12.11,5.57-9.86,9.57-7.83,3.85-19.58-15.24-31.29-48.31-52.83-58.98-88.46-3.21-10.74-3.89-25.19,10.1-28s40.96,19.1,53.28,26.24c-5.23-19.1-21.64-59.45-9.7-77.09,3.33-4.92,8.56-7.91,14.61-6.75,13.44,2.57,33.22,42.05,42.31,52.74-1.15-10.15-.78-20.33-1.15-30.51-.08-2.21-1.13-4.42-1.19-6.88-.35-13.93-1.64-49.75,11.18-58.02,23.25-14.99,34.05,27.88,38.69,42.69,3.88,12.37,6.55,25.26,10.08,37.73ZM594.92,46.72l-22.09,55.67c-10.64,14.99-22.76,5.35-28.83-7.66-10.1-21.63-11.91-50.44-23.38-72.2-2.26,3.66-2.7,10.07-2.94,14.34-1.34,23.91,3.72,49.12,2.41,72.67-.55,9.9-1.29,25.37-15.35,22.17-9.25-2.1-25.99-35.02-31.9-44.13l-13.83-18.97c-.8,17.24,4.7,34.05,10.33,50.12,3.56,10.15,12.67,25.32,11.58,35.7-.89,8.43-8.52,11.53-15.82,7.7-8.86-4.64-21.69-19.23-31.54-26.04-8.52-5.89-17.93-10.62-26.97-15.65.69,13.23,10.82,28.24,18.56,39.03,7.99,11.13,18.27,20.54,26.27,31.32,3.95,5.33,12,22.12,16.77,23.63,3.54,1.12,11.19-6.83,15.09-9.24,30.18-18.66,84.12-27.17,119.17-24.9,28.15,1.82,56.72,23.06,75.43,43.21,6.58,7.08,11.87,15.37,18.39,22.49-2.34-8.35-1.82-16.21-1.14-24.76,1.61-20.23,6.71-40.36,9.2-60.48-8.09,9.88-25.31,12.76-30.48-1.18-4.57-12.35,3.03-35.21,3.98-48.93.59-8.47-.39-17.39,0-25.9-15.72,13.52-24.6,33.17-35.07,50.73-6.3,7.63-18.21,1.65-17.86-7.43.17-4.43,6.86-19,8.6-24.88,1.72-5.81,3.71-12.37,4.02-18.42l-5.61,8.77c-4.14,6.64-6.07,22.6-12.9,26.26-11.84,6.35-17.33-8.48-19.15-17.52-3.1-15.38-1.5-32.54-2.66-48.02-.12-1.54-.56-6.97-2.27-7.49ZM646.23,215.39c-39.13-27.45-75.38-24.75-120.69-15.18-15.99,3.38-30.69,14.04-44.55,22.25l-9.32,14.28c17.48,1.92,34.3-2.85,51.4-4.45,34.59-3.25,67.84-1.99,102.32-1.25,14.43.31,28.95-.98,43.23,1.1.75-2.7-.71-1.95-1.47-2.63-6.51-5.82-14.47-9.6-20.91-14.12ZM477.42,279.36c19.07-.75,37.94-5.03,57.02-6.89,39.45-3.85,80.45-4.8,119.62-2.24,11.32.74,38.4,15.18,36.46-7.55-.51-5.99-3.61-10.15-8.09-13.8-53.36-2.96-107.13-4.97-160.51-.45-6.72.57-14.21,2.83-20.89,3.29-10.31.72-21.28-.5-31.65.02,2.79,7.45,5.51,15.67,12.67,20.18l-4.61,7.44ZM695.11,295.49c-.21-5.74-4.77-2.38-7.48-2.52-23.41-1.27-45.96-8.02-69.06-9.04-48.67-2.14-97.71,5.13-145.82,10.92-6.56,1.55-3.61,4.15-5.04,8.78-11.4,37.01-.22,71.32,24.09,100.16,2.02,2.39,6.27,4.63,7.39,6.43,2.32,3.7.09,9.48,2.41,11.41.98.81,12.6,5.39,14.69,6.04,3.11.97,7.02.32,10.89,1.78,5.48,2.07,12.48,8.38,19.07,10.88,49.74,18.85,79.98,9.75,111.97-31.41,8.72-11.21,13.94-23.65,21.24-35.19.93-1.46,1.34-3.36,1.88-5.01-6.93-3.74-16.93-12.51-18.84-20.45-2.25-9.34.7-19.67-2.03-29.15.66-17.85,18.85-25.49,34.64-23.62ZM441.14,327.75h-20.73c-2.63,0-5.18-4.89-5.27-7.53-.43-12.86,21.08-7.83,28.89-8.59-1.07-4.4,2.82-12.09,1.45-15.81-.41-1.11-6.68-7.84-7.72-8.44-6.06-3.49-25.57.17-32.62,2.64-2.77,3.23-3.32,34.03-2.49,39.39,1.02,6.57,14.34,20.38,20.27,23.5,6,3.15,13.32,2.73,19.97,3.65,1.28-9.11-2.73-18.16-.12-26.98l-1.6-1.82ZM682.44,341.56c-.23-6.67,1.39-13.84-2.87-19.57-3.82,1.64-.88,13.84.28,17.04.66,1.83-.62,3.09,2.59,2.52ZM599.52,484.39c-20.17,1.32-39.91-2.37-59.14-7.95l-11.02,23.52c.1,1.31,18.45,9.19,21.4,10.72,4.01,2.08,14.32,9.69,17.34,10.35,5.01,1.09,17.12-2.08,22.83-2.13,4.67-.04,10.32,2.32,15.49,1.19-2.29-11.86-7.6-23.43-6.9-35.7ZM722.09,706.21c-27.23-36.18-41.04-96.44-74.72-123.96-13.4-10.95-52.63-21.06-70.01-25.59-14.7-3.84-20.74-1.35-33.76-3.1-3.59-.48-5.89-2.99-10.31-3.51-14.25-1.67-31.43,1.22-46.06-.02-10.35-.87-23.74-4.98-34.46-7-41.03-7.75-81.98-12.04-123.66-4.81-15.05,2.61-30.14,5.78-44.92,9.21-18.75,4.35-24.5,2.72-42.5,12.78-18.95,10.59-45.7,24.89-62.48,37.73-1.64,1.25-11.2,8.79-11.65,9.39-2.83,3.73-2.42,10-4.01,12.96-1.89,3.51-7.32-.17-8.56,8.73-2.81,20.16,2.18,46.12-.06,66.74-.71,6.54-4.35,15.34-5.5,22.14-4.98,29.44-7.47,73.57,2.33,101.95,3.38,9.79,10.7,16.88,21.19,19.14,8.13,1.76,15.53-2.99,20.39-9.36,5.27-6.9,6.41-14.5,10.25-21.93,3.54-6.85,9.09-16.07,10.11-24.39,1.82-14.89,1.44-52.71.02-68.03-.48-5.19-2.98-8.99-3.51-13.77-2.46-22.31,2.58-37.65,6.42-58.1.88-4.68-.23-9.33,1.82-13.74,5.41-.37,9.92.48,15.14-1.56,3.41-1.33,5.58-4.78,7.38-5.29,22.44-6.35,44.79-17.88,66.91-26.39,5.36-2.06,12.97-3.38,18.62-5.57,5.99-2.32,18.69-10.06,23.73-10.82,13.92-2.12,38.97-4.35,52.91-4.44,4.19-.03,9.71,1.89,14.4.92,1.68,1.72-7.76,32.56-9.15,37.5-5.56,19.68-12.82,38.24-17.95,58.07-7.17,27.77-12.34,56.44-18.14,84.37-6.01,28.97-19.33,62.22.97,88.34,9.15,11.78,38.35,29.29,52.85,31.23,22.31,2.99,63.42-2.77,84.36-11.34,5.33-2.18,18.17-10.82,21.58-15.28.83-1.09.47-3.24,1.29-4.47,14.21-21.04,15.32-40.25,21.3-62.79.61-2.29,2.3-3.94,2.87-6.35,8.78-37.12,8.34-73.68,16.96-109.74,2.03-8.51,5.82-21.4,8.97-28.79.4-.93,2.35-1.84,2.87-3.26,1.62.07,14.75,10.21,16.68,12.12,4.09,4.04,5.95,8.86,9.17,12.71,10.56,12.59,29.71,29.93,37.83,43.95,1.89,3.26,2.66,7.69,4.85,11.03,1.67,2.55,5.76,4.3,7.82,7.4,7.56,11.38,5.12,20.15,16.85,33.82,15.24,17.77,27.32,35.47,49.07,45.38,8.84,4.03,34.4,7.21,42.89,2.96,10.86-5.45,34.56-11.04,48.25-15.32s25.24-8.04,38.56-15.58c12.5-7.07,25.28-14.06,37.59-21.15,5.99-3.45,25.38-22.26,27.05-28.24,2.89-10.38-.82-21.92-10.21-27.32-10.28-5.92-22.7-1.88-31.29,5.08-9.55,7.73-11.62,10.25-23.04,16.48-14.47,7.89-23.12,14.79-39.16,20.49-1,.35-.93,2.28-1.5,2.28-1.71.02-3.34-2.12-5.63-2.22-4.99-.22-11.95,3.24-16.23,3.37-5,.15-13.06-2.01-18.4-2.35-6.58-.42-15.23,1.05-21.34-.55-9.37-2.46-27.94-24.1-34.03-32.2ZM258.16,1246.55c30.08-32.87,58.28-81.41,72.38-124.07,8.53-25.81,5.08-45.67.24-71.61-1.74-9.35-3.67-21.19-5.65-30.06-.96-4.32-4.03-5.31-3.15-11.67,1.21-8.83,28.04-34.95,35.09-43.27,7.2-8.51,13.53-17.96,21.13-26.19,1.3-3.14-2.1-4.94-2.82-7.18-1.23-3.89,1.64-7.39,2.45-11.51,1.53-7.81,3.93-19.87-6.35-22.54-11.46-2.97-20.94,1.39-27.01,11.06-21.82,34.7-52.72,62.19-66.4,101.54-.28.8-1.97.85-2.17,1.7-.64,2.69.66,12.43,1.18,15.82,2.16,14.29,8.11,30.36,10.15,43.98,4.62,30.74-10.59,60.36-24.79,86.65-22.83,42.23-36.37,52.12-75.38,77.81-16.66,10.97-31.95,19.71-48.35,32.28-16.43,12.59-33.93,24.78-48.76,39.9-7.16,7.3-13.96,15.26-20.25,23.49-4.63,6.07-10.05,10.13-11.9,18.1s-1.87,39.3-.71,47.51c.45,3.21,5.35,9.71,7.92,11.67,28.04,21.3,78.46-4.3,90.26-34.85,39.59-38.45,66.29-88.54,102.89-128.54ZM557.17,929.87c-.98-1.04-1.42-4.4-3.11-6.69-10.3-13.95-28.68-8.09-36.12,5.44-6.25,11.37.41,21,9.1,28.49,1.26,1.08,5.17,2.79,5.41,3.23.66,1.18.02,3.24.48,4.66,1.38,4.27,32.59,23.34,38.16,26.39,21.74,11.91,46.62,22.78,69.86,31.5,9.58,3.6,18.96,4.65,24.43,13.58,5.91,9.66,9.02,24.59,7.71,35.8-1.49,12.8-23.4,49.18-32.16,59.99-14.6,18.03-28.49,33.35-44.33,50.12-20.34,21.53-38.2,45.52-61.7,63.84-11.01,8.59-22,10.93-34.32,22.16-4.75,4.33-13.3,12.14-13.95,18.25-1.63,15.31.76,22.76,12.65,32.25,5.7,4.55,11.66,4.78,18.97,5.22,12.32.74,23.4,1.38,33.96-5.3,11.48-7.27,26.07-22.17,35.03-32.94,13.39-16.1,23.3-35.14,35.73-51.25,6.94-9,11.31-18.79,17.49-26.83,2.62-3.41,5.75-3.74,8.41-6.56,5.81-6.13,14.55-28.91,19.92-37.73,7.25-11.92,22.58-25.33,31.23-36.67,10.01-13.12,23.84-49.95,21.52-65.91-2.23-15.32-6.46-34.02-14.44-47.76-13.59-23.42-30.38-27.4-53.19-35.49-16.6-5.89-35.24-15.1-52.15-23.87-9.23-4.79-18.19-11.78-26.57-16.05-5-2.55-14.53-4.21-18.02-7.89Z"/>
</svg>
