<?xml version="1.0" encoding="UTF-8"?>
<svg id="Capa_1" data-name="Capa 1" xmlns="http://www.w3.org/2000/svg" viewBox="0 0 580.52 329.94">
  <path d="M4.21,245.3c6.11-5.94,10.61-1.18,15.57,1.45,4.61,2.44,9.51,4.42,14.03,7.02,8,4.6,12.17,10.74,21.98,9.96,44.89-3.56,73.7-47.62,123.78-37.18,51.01,10.63,73.24,83.7,133.56,62.93,25.09-8.64,34.55-21.35,54.71-34.94,37.59-25.33,76.06-15.6,113.59,3.08,14.2,7.07,26.96,18.84,44.37,16.07,13.18-2.09,22.54-14.94,29.87-24.7s23.14-6.22,24.51,5.8c1.55,13.63-2.44,21.89-11.39,31.49-24.86,26.65-56.06,30.95-88.17,13.46-31.49-17.15-65.47-38.28-99.65-11.8-17.01,13.17-26.86,22.86-47.45,32.07-46.21,20.67-81.68,7.46-117.86-24.32-14.02-12.32-27.21-33.16-47.69-34.95-24.1-2.11-58.06,25.8-82.95,33.03-37.11,10.77-54.08,5.2-78.37-23.76-5.87-7-10.28-17.08-2.46-24.69Z"/>
  <g>
    <path d="M417.01,206.63c-1.3,1.06-16.36,5.2-19.68,6.44-26.57,9.96-49.37,25.19-69.4,45.21-8.86,8.86-11.45,17.56-26.49,16.37-11.38-.9-11.71-6.72-18.31-13.65-17.81-18.67-31.91-28.02-55.1-39.23-8.93-4.31-31.37-10.9-35.71-18.87-1.19-2.19-2.4-4.63-1.88-7.19.53-1.78,18.49-12.7,21.65-15.04,1.91-1.41,3.32-3.62,5.16-4.98,23.23-17.12,47.38-32.98,70.21-50.67-4.57-11.28-13.43-19.03-24.45-23.95-27.2-12.14-59.6,10.78-73.76,33.38-4.56,7.28-4.49,15.71-8.89,23.07-3.17,5.3-15.98,16.21-21.84,17.92-15.35,4.5-28.91-3.02-32.56-18.44-3.21-13.54-.25-23.4,6.26-35.13,9.69-17.45,47.2-55.29,64.42-65.78,8.61-5.24,44.7-15.92,54.92-16.81,27.1-2.36,70.14,21.38,88.11,41.29,27.99,31.02,51.38,58.14,71.47,95.36,3.5,6.49,13.25,24.68,5.89,30.7ZM308.04,252.05c.11-2.72,2.46-3.99,3.78-5.97,20.1-30.13,47.52-47.92,76.96-68.04,4.57-5.51.44-15.72-3.19-21.02-10.5-15.33-26.22-28.3-38.17-42.13-15.29-17.7-27.43-31.21-46.91-45.08-19.78-14.09-55.14-21.27-77.09-9.51-21.15,11.33-53.83,36.62-68.53,55.43-5.06,6.48-16.41,26.04-16.07,33.8.37,8.49,6.88,12.84,15.05,11.16,6.36-1.31,8.86-9.14,12.41-14.1,15.73-22.03,39.26-50.6,65.72-59.02,17.04-5.42,28.19-7.54,42.91,3.92,15.13,11.79,28.88,26.57,30.47,46.73.47,6.01-6.55,9.62-10.8,12.68-20.14,14.46-44.15,25.72-64.76,39.71-.61.42-1.82,1.1-1.88,1.81,1.5,6.14,9.65,5.1,15.11,6.54,24.67,6.5,47.18,28.12,62.23,47.7l2.77,5.4Z"/>
    <g>
      <path d="M525.83,79.56c0,43.94-35.64,79.56-79.59,79.56s-79.59-35.62-79.59-79.56S402.28,0,446.24,0s79.59,35.62,79.59,79.56ZM505.34,67.32c-14.81-60.99-102.76-61.54-117.8-.46.22,1.31,16.87,3.96,19.26,4.27,12.01,1.55,26.76,2.78,38.85,3.25,20.35.79,40.41-.38,59.7-7.06ZM506.11,77.46c-9.6,2.31-19.54,5.58-29.35,6.9-19.39,2.61-45.66-.99-65.29-3.89-8.65-1.27-17.01-3.13-25.44-5.36-3.32,61,76.91,86.44,110.53,36.24-9.4-9.09-6.64-30.29,9.55-25.32v-8.57Z"/>
      <path d="M465.83,93.32c4.84-4.65,13-1.31,15.73,4.39,4.3,9.01,1.67,21.73-10.17,21.11-11.47-.6-12.3-19.04-5.56-25.5Z"/>
    </g>
  </g>
</svg>