<?xml version="1.0" encoding="UTF-8"?>
<svg id="Capa_1" xmlns="http://www.w3.org/2000/svg" version="1.1" viewBox="0 0 1926 2048">
  <!-- Generator: Adobe Illustrator 29.3.0, SVG Export Plug-In . SVG Version: 2.1.0 Build 146)  -->
  <path d="M1227.5,212.1c1.3,1.8,6.8,2.9,7.4,6.8l13.9,53.8c17.5-.4,35.2.8,52.7.1,30.4-1.2,64.7-12.3,91.7-11.6,24.2.6,37.7,19.8,14.3,35.7-19.6,13.3-82.6,8.2-107.8,9.2-16.3.7-32.8,4.5-49.2,3.5-2.9,28.7,2.3,52.8-4.2,81.9-14.4,64.3-51,99.1-109,125.2-5.6,2.5-31.9,11-33.3,13.6-.8,1.2-.7,2.5-.7,3.9,0,4.7,11.4,48.9,13.7,53.3s9.2,7.5,12.9,12.1c15.5,19.3,13.5,56.5,13.5,80.3,0,30-3.5,49.5-8.2,78.8-3.1,19.1-.6,40.7-13.6,56.6,10,3.3,14.3,13.2,23.4,16.7,29.3,11.3,74-6.1,103.6-13.4s44.9-4.6,52.6-17.6c3.6-6.1.8-10.9,9.4-12.7-.8-16.6.7-33.4-.1-50-.8-14.5-4.4-30.5-5.1-45.1-1.7-38.4-1-77-1.5-115.4,4.2-17.2,27.8-26.6,43.7-20.5s30.1,38.5,36.5,53.9l-3.4,3.1c6.4,22.4,15.4,47.4,18.4,70.4,1.5,11,.2,25.9,1.8,36.7,1,6.4,7.1,10.5,6.9,17.4,12.8,5.8,25.7,1.6,38.6,5.7,7,2.2,21.7,12.6,23.9,19.6,1.4,4.6.1,9.3,1.1,13.9,4.5,20.7,6.1,35.6,2.6,56.8-.6,3.6-6.6,18.4-9,21.3l-37.7,32.5c-4.6,6.3,4,40.4,5.1,50.3,11.7,99.5,15.2,199.8,26.8,299.3,7.8,66.3,16.7,131.8,24.8,197.6,5,40.4,4.1,75.9,6.9,115.2,1.6,22.9,15.3,86.8,7.2,105.7-1.6,3.7-6.7,6.2-8,10.4-1.2,3.8-.4,7.6-1.7,11.8-2,6.3-15.5,12.2-21.8,13.3s-9-.7-12.9.5c-6.7,2-4.5,10-19.6,7.3-23.4-4.2-34.7-32.1-39.5-52.4-15-62.4-15.1-118.7-18.9-181.8-2.1-34.9-9.9-69.1-13.3-103.7-8.2-82.7-5-165.7-11.7-247.5-1.5-18.3-7.7-40.8-8.2-58.7-.9-31.9.5-64.8-1.8-96.9-.3-4.2-1.8-8.2-1.8-12.5-19.6,9.1-38,17.8-58.9,23.9-30.2,8.7-83.3,16.4-114.1,14.6-25.8-1.6-53-16.3-80.2-13.4-5,21.2-6.3,43-13.5,63.6-7.4,21-13,40-27.6,57.7-5.8,7-14.7,14-21.7,20.1-4.3,3.8-14.6,7.7-12.7,14.2.8,2.8,16.7,23.1,20.1,28.5,14.6,23.4,27.9,46.7,37.8,72.6,2.9,7.6,3.6,16.8,6.6,23.5,8.4,19.1,32.4,48.2,44.3,67.8,41.2,67.7,82.9,172.6,144.9,221.3,34,26.7,80.4,45.2,107.6,79.7,12.3,15.7,33.6,57.1,37.4,76.3,1,4.8-2.4,18.6-4.3,23.4-4.4,11.2-27.4,47.3-36.6,53.7-14.5,10-55.5,17.8-73.3,17-32.7-1.6-73.7-20.1-101-37.8-46.1-29.9-63.7-57.7-97.2-98.5-10.7-13-23.7-24.5-34.1-37.8-40.2-51.4-90.1-137-120.6-195.5-13.2-25.3-18.5-48.8-29.4-72.6-4.5-9.9-13.8-19.6-19-29.4-5.1,7-10.2,14.3-15.9,20.8-30.6,34.7-64.4,66.5-94.4,101.2-14.5,16.7-17.9,22.1-29.6,40.6-18,28.2-38.9,50.6-56.6,77.2-20.6,31.2-36.7,64.1-58.8,95.1-28.6,40-63.7,86.2-95.1,124-26.5,32-47.9,45.2-85.8,61.4-32.7,13.9-58.3,5.6-90.2-5.7-71.1-25.2-90.8-96.1-56.4-161,21.9-41.3,120.6-133.6,163.9-150.5,7.6-3,16.5-3.9,23.4-6.7,10.9-4.4,59.2-47.8,70.3-58.5,44.5-43,69.1-92.3,97.8-146.3s47.2-87.5,65.8-129.8c11.1-25.1,13.9-51.4,22.8-75.9,3.5-9.5,11.6-17.2,13.4-26.7,5.6-29.8-10.4-44.4-16.5-70.6-8-33.9-2-76.1,2.5-110.7,3.4-26,8.2-51.9,14.7-77.2l-24.1-42.5c-14.9-45.3-30.3-106.3-23.8-154.3,1.3-9.5,17.8-48.6,23.3-57s22-23.1,30.7-24.4c13.4-2.1,41.9-3.4,55-1.6,27,3.6,61,18,87.5,21.2s7.1.5,11.8-.7c16.8-4.5,36.1-41.3,43.6-56.6-44.2-27.6-75.1-66.1-91.3-115.8-6.8-20.9-11.6-63.9-5-84.4,2.3-7.2,7.4-9.9,9.1-14.3,13.9-35.1,17.7-64.5,38.6-100.2,6.3-10.8,14.4-24.4,26.6-28.6,58.6-19.7,107.5-36.1,171.8-28.9,17.5,2,76.6,38.3,87.8,52.7,5.8,7.5,11.6,19.2,17.2,27.1ZM1164.5,209.9c-5.7-4.8-18.8-10.1-26.2-13.1-42.7-17.2-74.6-18-119.5-14.3-36,3-61.6,26.6-79.2,56.4-9.3,15.8-14.7,29.6-15,48.2.9,2.5,3.1,2.3,5.3,2.5,56.3,5.3,126.3-7.4,184-10.2,30.4-1.5,60.9.9,91.2-3.3,3.8-3.6-16.7-31.6-19.7-36.3-7.3-11.4-9.6-20.4-21-30ZM1180.1,398.3c2-9.4,9.6-17.9,14-27,3.4-7,7.8-16,10.2-23.2s7.5-27.4,7.2-34.7c-.2-7.2-12.5-2.2-17.2-2-23.7.8-48.5-1.4-72.1-.1-23.4,1.2-46.8,7.2-70.2,8.4-37.7,2-73.9,2.1-111.8,6.9s-25.5,3.2-36.2,7.6c-5.8,24.9,21.4,70.7,36.9,90,34.4,42.8,121.2,79.3,172.8,50.7,11.1-6.1,19.9-14.9,27.9-23.5,4.1-4.5,18.9-19.2,20.1-23.8.9-3.6,0-1.6-1.8-1.8-6.3-.8-9.6,0-15-4.9-22.9-21.2-30.3-51.3-10.8-77.7,24.1-32.4,54.8,10,48.5,40.1-.9,4.3-9.9,16.2-2.6,15ZM1084.8,532c-26.8,1.7-53.1-4-78.5-11.7l-13.2,32.6c9.1,5.1,19,8.5,28.2,13.3s18.8,13.1,22.9,14c6.1,1.2,22.6-2.8,29.9-2.9,6-.1,13.9,3.1,20.7,1.5l-10-46.8ZM1385.5,740.8v-23.5c-8.1-30.8-9.7-62.9-14.9-93.9-3.4-20.8-11.3-56.3-40-48.7-30,7.9-8.4,58.3-6.6,78.7,2,22.7-.7,46,5,68.6l1.7,56,40.2-30.8,14.6-6.3ZM1084.6,651c-27.3-7.1-54.7-13.8-82.1-20.8-47.3-12-95.7-26.2-144.5-32.8-20.1-2.7-54-6.3-73.4-3.6-12.4,1.7-19.6,18.1-20.8,29.3-1.2,11.2,1.3,50.3,4.2,61.1,8.9,33.3,32.5,90.2,51.3,119.3,35.2,54.5,102.3,81.1,160.3,103.9,34.6,13.6,52.6,19.9,89.4,24.3,35.4,4.3,71,4.8,107.1,3.4,62.5-2.4,116.3-22,174.2-43.2,21.2-7.7,66.4-31.1,84-44.8,25.3-19.7,11.8-73.9-16.2-80.6-37.4-8.9-43.8,12.4-69.2,27.1s-15.2,5.3-20.3,9.3c-39.1,31.1-84.9,32.1-130.4,47.4-10.8,3.6-18.5,11.6-32.5,12.7-6.8.5-37.4-5-44.1-7.4s-12.3-7.8-18-10.4c-39.1-17.5-85.4-31.2-108.8-70.1-3.2-5.3-3.2-18.3,1.3-21.6s22.7,4.1,27.5,6.2,35.8,23.3,37.9,21.5c4.3-21.8,7.9-43.7,12.2-65.5,4.3-21.4,13.2-42.4,11-64.7ZM806.2,1021.4c54.1,33.4,122.9,33.2,171.6-10.2,15.5-13.8,18.6-26.7,26.7-45.2-1.1-1.6-2.2-2.2-4.1-2.5-11.8-1.9-23.2-3.2-35.1-5-34.3-5.2-74.5-30.8-104.4-49.5-29-18.1-56.2-39.8-76.2-67.6-6.6,4.2-3.3,11-4.4,17.3-5,28.5-16.5,58.3-19.7,87.3-1.8,16.6,5.5,35.9,14.1,49.1,6.1,9.4,21.9,20.2,31.5,26.2ZM1409.3,911.7c-12.9-1.8-19.2,11.2-28.5,17.5-5.6,3.8-12.3,5.9-18.4,8.7-1.1,10.7,1.4,22.8,1.2,33s-2.3,7-2.6,10.5c-1.3,17.7,7,36.9,8.2,54.9,2.3,33.1-2.7,66.9,0,100.4,11.5,142.8,20.6,285.8,35.1,428.1,2.6,25.4,7.2,45.5,8.4,71.7.6,13.4,8.8,22.2,19.2,29.5,6.8,4.8,21.5,9.4,29.2,5.8.6-.3,9.8-8.1,10.1-8.7,1.8-2.6,8.6-24.9,8.4-28.1-.3-5-6-10.6-6.8-18.4-1.5-14.1.9-30.7,0-45.2-1.6-28-4.3-58.7-6.8-86.9-3.5-39.1-11.9-77.9-13.5-117.1-.3-7.5,3.6-5.1,3.6-8.2-.5-34.9-10.8-77.2-15-112.4-9.3-78-12.9-155.8-20.3-233.9-3.2-33.8-7.7-67.6-11.7-101.2ZM971.1,1114.1c-32.1-.6-60.2,3.9-92-2.5-12.8-2.6-37-8.6-48.9-13-12.1-4.5-22.8-18.9-35.6-4.7-4,4.5-4.2,9.6-6.8,13.3-25.9,37-27,61.9-40.8,103.1-17.8,53.1-53.2,117-81.7,165.8-56.2,96.1-176.8,168.1-258.7,243-21.1,19.3-37,31.2-50.6,58.2-6.3,12.6-11.2,55.9-5.7,68.5,11.5,26.3,50,36,76.2,35.5,40.9-.8,88.6-64.7,114.7-92.7,29-31.2,59.9-62.1,87.9-94.4,50.9-58.5,93.9-124,147.9-179.8,15.3-15.9,32.8-29.6,47.7-45.9,10.2-11.1,33.3-36.4,40.7-48,15.2-23.9-5.6-48.3-13.9-70.8-2.9-7.9-9.1-26.7-9.3-34.3-.2-9.1,5.6-14.7,14.4-10.9,14.9,6.5,33.3,40.2,42.2,54.8,55.8,92.3,107.9,187.4,158.9,282.6,28.8,53.7,68.2,89.6,109,133.5,18.8,20.3,60,48.8,84.8,62.4,20.9,11.4,52.7,20.2,73.3,3.7,3.7-2.9,19-18.1,21.8-21.7,14.5-18.8,1.9-47.4-12.5-62.8-50.4-53.7-105.7-94.3-149.1-155.2-28.7-40.3-53.6-71.1-76.5-115.9-34.1-66.7-64.3-149.3-105.5-210.6-12.3-18.3-33.5-36.9-31.8-61Z"/>
</svg>
